<!DOCTYPE svg PUBLIC "-//W3C//DTD SVG 20010904//EN" "http://www.w3.org/TR/2001/REC-SVG-20010904/DTD/svg10.dtd">
<svg version="1.0" xmlns="http://www.w3.org/2000/svg" width="256px" height="256px" viewBox="0 0 570 570" preserveAspectRatio="xMidYMid meet">
<metadata> Created by Rubik Image Generator, written by Li Xiao-Tian. </metadata>

<rect id="bg" width="570" height="570" fill="#ffffff"/>
<path id="grid" d="M 40 40 h 490 v 490 h -490 v -490 z M 50 50 v 150 h 150 v -150 h -150 z M 50 210 v 150 h 150 v -150 h -150 z M 50 370 v 150 h 150 v -150 h -150 z M 210 50 v 150 h 150 v -150 h -150 z M 210 210 v 150 h 150 v -150 h -150 z M 210 370 v 150 h 150 v -150 h -150 z M 370 50 v 150 h 150 v -150 h -150 z M 370 210 v 150 h 150 v -150 h -150 z M 370 370 v 150 h 150 v -150 h -150 z"/>
<rect id="lbu" x="60" y="60" width="130" height="130"/>
<rect id="mbb" x="220" y="12" width="130" height="18"/>
<rect id="rbr" x="540" y="60" width="18" height="130"/>
<rect id="lsu" x="60" y="220" width="130" height="130"/>
<rect id="msu" x="220" y="220" width="130" height="130"/>
<rect id="rsr" x="540" y="220" width="18" height="130"/>
<rect id="lff" x="60" y="540" width="130" height="18"/>
<rect id="mfu" x="220" y="380" width="130" height="130"/>
<rect id="rfu" x="380" y="380" width="130" height="130"/>
</svg>