<!DOCTYPE svg PUBLIC "-//W3C//DTD SVG 20010904//EN" "http://www.w3.org/TR/2001/REC-SVG-20010904/DTD/svg10.dtd">
<svg version="1.0" xmlns="http://www.w3.org/2000/svg" width="256px" height="256px" viewBox="0 0 570 570" preserveAspectRatio="xMidYMid meet">
<metadata> Created by Rubik Image Generator, written by Li Xiao-Tian. </metadata>

<rect id="bg" width="570" height="570" fill="#ffffff"/>
<path id="28" d="M 285 85 l 35 35 h -30 v 270 h -10 v -270 h -30 l 35 -35 z" transform="rotate(180,285,285)"/>
<path id="82" d="M 285 85 l 35 35 h -30 v 270 h -10 v -270 h -30 l 35 -35 z"/>
<path id="39" d="M 125 85 l 35 35 h -30 v 280 h -10 v -280 h -30 l 35 -35 z" transform="rotate(180,285,285)"/>
<path id="93" d="M 445 85 l 35 35 h -30 v 280 h -10 v -280 h -30 l 35 -35 z"/>
<rect id="lbl" x="12" y="60" width="18" height="130"/>
<rect id="lbb" x="60" y="12" width="130" height="18"/>
<rect id="lsl" x="12" y="220" width="18" height="130"/>
<rect id="lfl" x="12" y="380" width="18" height="130"/>
<rect id="lff" x="60" y="540" width="130" height="18"/>
<rect id="rsr" x="540" y="220" width="18" height="130"/>
<path id="grid" d="M 40 40 h 490 v 490 h -490 v -490 z M 50 50 v 150 h 150 v -150 h -150 z M 50 210 v 150 h 150 v -150 h -150 z M 50 370 v 150 h 150 v -150 h -150 z M 210 50 v 150 h 150 v -150 h -150 z M 210 210 v 150 h 150 v -150 h -150 z M 210 370 v 150 h 150 v -150 h -150 z M 370 50 v 150 h 150 v -150 h -150 z M 370 210 v 150 h 150 v -150 h -150 z M 370 370 v 150 h 150 v -150 h -150 z"/>
</svg>